<svg width="24" height="24" viewBox="0 0 24 24" fill="none" xmlns="http://www.w3.org/2000/svg">
<mask id="path-1-outside-1_2311_1631" maskUnits="userSpaceOnUse" x="2.75" y="0" width="19" height="11" fill="black">
<rect fill="white" x="2.75" width="19" height="11"/>
<path d="M17.4113 7.8573L15.1503 3.33534C14.9997 3.03541 14.6354 2.9152 14.3355 3.06334L4.75 7.8573H17.4113Z"/>
</mask>
<path d="M17.4113 7.8573L15.1503 3.33534C14.9997 3.03541 14.6354 2.9152 14.3355 3.06334L4.75 7.8573H17.4113Z" fill="white"/>
<path d="M17.4113 7.8573V10.3573H21.4563L19.6473 6.73926L17.4113 7.8573ZM15.1503 3.33534L17.3863 2.2173L17.3845 2.21369L15.1503 3.33534ZM14.3355 3.06334L13.2283 0.821825L13.2172 0.827384L14.3355 3.06334ZM4.75 7.8573L3.63174 5.62134L4.75 10.3573V7.8573ZM19.6473 6.73926L17.3863 2.2173L12.9142 4.45337L15.1752 8.97533L19.6473 6.73926ZM17.3845 2.21369C16.6126 0.67606 14.7511 0.0697374 13.2284 0.821853L15.4426 5.30483C14.5198 5.76066 13.3868 5.39476 12.916 4.45699L17.3845 2.21369ZM13.2172 0.827384L3.63174 5.62134L5.86826 10.0933L15.4538 5.29929L13.2172 0.827384ZM4.75 10.3573H17.4113V5.3573H4.75V10.3573Z" fill="white" mask="url(#path-1-outside-1_2311_1631)"/>
<path d="M21.2499 7.7215V7.03585C21.2499 6.00751 20.4166 5.17871 19.3927 5.17871H4.82141C3.12685 5.17871 1.75 6.55556 1.75 8.25012V19.1786C1.75 20.8732 3.12685 22.25 4.82141 22.25H20.607C21.6325 22.25 22.4641 21.4184 22.4641 20.3929V9.4644C22.4641 8.66291 21.958 7.98263 21.2499 7.7215Z" fill="url(#paint0_linear_2311_1631)" stroke="white" stroke-width="2.5"/>
<path d="M4.82198 7.64307H18.7862V8.85734H4.82198C4.48684 8.85734 4.21484 8.58534 4.21484 8.2502C4.21484 7.91506 4.48684 7.64307 4.82198 7.64307Z" fill="white"/>
<path d="M21.8197 16.1428H18.1769C17.1715 16.1428 16.3555 15.3268 16.3555 14.3214C16.3555 13.3148 17.1715 12.5 18.1769 12.5H21.8197C22.1548 12.5 22.4268 12.772 22.4268 13.1071V15.5357C22.4268 15.8708 22.1548 16.1428 21.8197 16.1428Z" fill="#FFCA40"/>
<path d="M18.5519 8.8573L16.2909 4.33534C16.1403 4.03541 15.776 3.9152 15.4761 4.06334L5.89062 8.8573H18.5519Z" fill="#4CAF50"/>
<path d="M4.21484 8.85711H16.1257L13.8647 4.33515C13.7141 4.03522 13.3498 3.91501 13.0499 4.06436L4.21484 8.4819V8.85711Z" fill="#81C784"/>
<defs>
<linearGradient id="paint0_linear_2311_1631" x1="23.4909" y1="27.375" x2="15.0789" y2="2.76052" gradientUnits="userSpaceOnUse">
<stop stop-color="#FF002C"/>
<stop offset="1" stop-color="#FFCE00"/>
</linearGradient>
</defs>
</svg>
