<svg width="25" height="24" viewBox="0 0 25 24" fill="none" xmlns="http://www.w3.org/2000/svg">
<mask id="path-1-outside-1_2375_23775" maskUnits="userSpaceOnUse" x="0.335938" y="0.339111" width="24" height="23" fill="black">
<rect fill="white" x="0.335938" y="0.339111" width="24" height="23"/>
<path fill-rule="evenodd" clip-rule="evenodd" d="M13.3634 3.33911C13.1009 3.34072 12.8886 3.553 12.8886 3.81554V10.4877C12.8886 10.7518 13.1009 10.9657 13.3634 10.9657H20.0372C20.2997 10.9657 20.5136 10.7518 20.5136 10.4877C20.2778 6.6479 17.2048 3.57492 13.3634 3.33911ZM21.1804 12.9697H15.1772C14.9146 12.9697 14.7007 13.1836 14.7007 13.4462C14.7007 13.5798 14.7574 13.7001 14.8462 13.7868L19.0736 18.0142C19.1602 18.1078 19.2859 18.1666 19.4228 18.1666C19.588 18.1666 19.7334 18.0832 19.8185 17.9559C20.8579 16.7496 21.5263 15.2171 21.6466 13.5312C21.653 13.5028 21.6568 13.4745 21.6568 13.4462C21.6568 13.1836 21.4445 12.9697 21.1804 12.9697ZM11.1112 12.7024L16.0337 17.6249L16.0342 17.6255C16.1193 17.7121 16.1711 17.8308 16.1711 17.9597C16.1711 18.1051 16.1059 18.235 16.0022 18.3222C14.659 19.497 12.9008 20.2087 10.9759 20.2087C6.75648 20.2087 3.33594 16.6261 3.33594 12.5671C3.33594 8.50812 6.50249 5.18597 10.5011 4.94214C10.7636 4.94214 10.9759 5.15442 10.9759 5.41696L10.9775 12.3698C10.9775 12.4987 11.0277 12.6174 11.1112 12.7024Z"/>
</mask>
<path fill-rule="evenodd" clip-rule="evenodd" d="M13.3634 3.33911C13.1009 3.34072 12.8886 3.553 12.8886 3.81554V10.4877C12.8886 10.7518 13.1009 10.9657 13.3634 10.9657H20.0372C20.2997 10.9657 20.5136 10.7518 20.5136 10.4877C20.2778 6.6479 17.2048 3.57492 13.3634 3.33911ZM21.1804 12.9697H15.1772C14.9146 12.9697 14.7007 13.1836 14.7007 13.4462C14.7007 13.5798 14.7574 13.7001 14.8462 13.7868L19.0736 18.0142C19.1602 18.1078 19.2859 18.1666 19.4228 18.1666C19.588 18.1666 19.7334 18.0832 19.8185 17.9559C20.8579 16.7496 21.5263 15.2171 21.6466 13.5312C21.653 13.5028 21.6568 13.4745 21.6568 13.4462C21.6568 13.1836 21.4445 12.9697 21.1804 12.9697ZM11.1112 12.7024L16.0337 17.6249L16.0342 17.6255C16.1193 17.7121 16.1711 17.8308 16.1711 17.9597C16.1711 18.1051 16.1059 18.235 16.0022 18.3222C14.659 19.497 12.9008 20.2087 10.9759 20.2087C6.75648 20.2087 3.33594 16.6261 3.33594 12.5671C3.33594 8.50812 6.50249 5.18597 10.5011 4.94214C10.7636 4.94214 10.9759 5.15442 10.9759 5.41696L10.9775 12.3698C10.9775 12.4987 11.0277 12.6174 11.1112 12.7024Z" fill="url(#paint0_linear_2375_23775)"/>
<path d="M13.3634 3.33911L13.5166 0.843808L13.4325 0.838643L13.3482 0.839158L13.3634 3.33911ZM20.5136 10.4877H23.0136V10.411L23.0089 10.3344L20.5136 10.4877ZM14.8462 13.7868L16.614 12.019L16.6032 12.0082L16.5923 11.9976L14.8462 13.7868ZM19.0736 18.0142L20.9082 16.3159L20.8755 16.2805L20.8414 16.2464L19.0736 18.0142ZM19.8185 17.9559L17.9246 16.324L17.8247 16.4399L17.7397 16.5671L19.8185 17.9559ZM21.6466 13.5312L19.2083 12.9791L19.1665 13.1641L19.153 13.3532L21.6466 13.5312ZM16.0337 17.6249L17.8015 15.8572L16.0337 17.6249ZM11.1112 12.7024L9.32664 14.4532L9.33498 14.4617L9.34339 14.4702L11.1112 12.7024ZM16.0342 17.6255L17.8184 15.8743L17.8103 15.866L17.802 15.8577L16.0342 17.6255ZM16.0022 18.3222L14.3939 16.4081L14.375 16.4241L14.3563 16.4404L16.0022 18.3222ZM10.5011 4.94214V2.44214H10.4249L10.3489 2.44677L10.5011 4.94214ZM10.9759 5.41696H8.47588V5.41754L10.9759 5.41696ZM10.9775 12.3698H13.4775V12.3692L10.9775 12.3698ZM15.3886 3.81554C15.3886 4.93662 14.482 5.83232 13.3787 5.83906L13.3482 0.839158C11.7198 0.849107 10.3886 2.16937 10.3886 3.81554H15.3886ZM15.3886 10.4877V3.81554H10.3886V10.4877H15.3886ZM13.3634 8.46568C14.498 8.46568 15.3886 9.38757 15.3886 10.4877H10.3886C10.3886 12.116 11.7038 13.4657 13.3634 13.4657V8.46568ZM20.0372 8.46568H13.3634V13.4657H20.0372V8.46568ZM18.0136 10.4877C18.0136 9.37656 18.9135 8.46568 20.0372 8.46568V13.4657C21.6859 13.4657 23.0136 12.127 23.0136 10.4877H18.0136ZM13.2103 5.83441C15.7918 5.99289 17.8599 8.0615 18.0183 10.6409L23.0089 10.3344C22.6957 5.2343 18.6177 1.15695 13.5166 0.843808L13.2103 5.83441ZM15.1772 15.4697H21.1804V10.4697H15.1772V15.4697ZM17.2007 13.4462C17.2007 14.5643 16.2953 15.4697 15.1772 15.4697V10.4697C13.5339 10.4697 12.2007 11.8029 12.2007 13.4462H17.2007ZM16.5923 11.9976C16.9475 12.3442 17.2007 12.8548 17.2007 13.4462H12.2007C12.2007 14.3049 12.5674 15.056 13.1001 15.5759L16.5923 11.9976ZM20.8414 16.2464L16.614 12.019L13.0784 15.5545L17.3058 19.782L20.8414 16.2464ZM19.4228 15.6666C20.0061 15.6666 20.538 15.916 20.9082 16.3159L17.239 19.7125C17.7825 20.2996 18.5657 20.6666 19.4228 20.6666V15.6666ZM17.7397 16.5671C18.1039 16.0219 18.727 15.6666 19.4228 15.6666V20.6666C20.449 20.6666 21.363 20.1444 21.8972 19.3447L17.7397 16.5671ZM19.153 13.3532C19.0723 14.4831 18.6259 15.5101 17.9246 16.324L21.7123 19.5879C23.09 17.9891 23.9803 15.9511 24.1403 13.7091L19.153 13.3532ZM19.1568 13.4462C19.1568 13.2545 19.1821 13.0952 19.2083 12.9791L24.0849 14.0832C24.124 13.9105 24.1568 13.6945 24.1568 13.4462H19.1568ZM21.1804 15.4697C20.0583 15.4697 19.1568 14.5588 19.1568 13.4462H24.1568C24.1568 11.8084 22.8307 10.4697 21.1804 10.4697V15.4697ZM17.8015 15.8572L12.8789 10.9346L9.34339 14.4702L14.2659 19.3927L17.8015 15.8572ZM17.802 15.8577L17.8015 15.8572L14.2659 19.3927L14.2665 19.3932L17.802 15.8577ZM18.6711 17.9597C18.6711 17.1514 18.3448 16.4106 17.8184 15.8743L14.25 19.3766C13.8937 19.0136 13.6711 18.5102 13.6711 17.9597H18.6711ZM17.6104 20.2363C18.257 19.6929 18.6711 18.8723 18.6711 17.9597H13.6711C13.6711 17.3379 13.9548 16.7771 14.3939 16.4081L17.6104 20.2363ZM10.9759 22.7087C13.5289 22.7087 15.8665 21.7621 17.648 20.204L14.3563 16.4404C13.4514 17.2318 12.2728 17.7087 10.9759 17.7087V22.7087ZM0.835938 12.5671C0.835938 17.9721 5.34128 22.7087 10.9759 22.7087V17.7087C8.17168 17.7087 5.83594 15.2801 5.83594 12.5671H0.835938ZM10.3489 2.44677C5.03818 2.77061 0.835938 7.17948 0.835938 12.5671H5.83594C5.83594 9.83677 7.9668 7.60132 10.6532 7.4375L10.3489 2.44677ZM13.4759 5.41696C13.4759 3.77371 12.1443 2.44214 10.5011 2.44214V7.44214C9.38289 7.44214 8.47588 6.53513 8.47588 5.41696H13.4759ZM13.4775 12.3692L13.4759 5.41638L8.47588 5.41754L8.47748 12.3704L13.4775 12.3692ZM12.8957 10.9515C13.2731 11.3363 13.4775 11.8472 13.4775 12.3698H8.47748C8.47748 13.1502 8.78235 13.8985 9.32664 14.4532L12.8957 10.9515Z" fill="white" mask="url(#path-1-outside-1_2375_23775)"/>
<path d="M21.1833 12.9697H15.1796C14.917 12.9697 14.7031 13.1836 14.7031 13.4462C14.7031 13.5798 14.7598 13.7001 14.8486 13.7868L19.076 18.0142C19.1626 18.1078 19.2883 18.1666 19.4252 18.1666C19.5904 18.1666 19.7358 18.0832 19.8208 17.9559C20.8603 16.7496 21.5287 15.2171 21.649 13.5312C21.6554 13.5028 21.6592 13.4745 21.6592 13.4462C21.6592 13.1836 21.4469 12.9697 21.1827 12.9697H21.1833Z" fill="#4DEFCB"/>
<path d="M13.3654 3.33911C13.1029 3.34072 12.8906 3.553 12.8906 3.81554V10.4877C12.8906 10.7518 13.1029 10.9657 13.3654 10.9657H20.0392C20.3017 10.9657 20.5156 10.7518 20.5156 10.4877C20.2798 6.6479 17.2068 3.57492 13.3654 3.33911Z" fill="#FFCA40"/>
<path d="M16.0337 17.6249L11.1112 12.7024C11.0277 12.6174 10.9775 12.4987 10.9775 12.3698L10.9759 5.41696C10.9759 5.15442 10.7636 4.94214 10.5011 4.94214C6.50249 5.18597 3.33594 8.50812 3.33594 12.5671C3.33594 16.6261 6.75648 20.2087 10.9759 20.2087C12.9008 20.2087 14.659 19.497 16.0022 18.3222C16.1059 18.235 16.1711 18.1051 16.1711 17.9597C16.1711 17.8308 16.1193 17.7121 16.0342 17.6255L16.0337 17.6249Z" fill="url(#paint1_linear_2375_23775)"/>
<defs>
<linearGradient id="paint0_linear_2375_23775" x1="23.9469" y1="27.5891" x2="13.106" y2="0.0283881" gradientUnits="userSpaceOnUse">
<stop stop-color="#FF002C"/>
<stop offset="1" stop-color="#FFCE00"/>
</linearGradient>
<linearGradient id="paint1_linear_2375_23775" x1="17.7755" y1="26.8878" x2="6.14448" y2="3.99681" gradientUnits="userSpaceOnUse">
<stop stop-color="#FF002C"/>
<stop offset="1" stop-color="#FFCE00"/>
</linearGradient>
</defs>
</svg>
